<svg width="16" height="16" viewBox="0 0 16 16" fill="none" xmlns="http://www.w3.org/2000/svg">
<rect width="16" height="16" rx="2" fill="#E6E3D9"/>
<path d="M11.9756 1.90234C12.1637 1.89305 12.3367 1.94502 12.4922 2.05762H12.4932C12.6115 2.13654 12.6993 2.23394 12.75 2.34961L12.7881 2.47168V2.47363C12.8003 2.54095 12.7963 2.63783 12.7822 2.75488C12.7678 2.87531 12.7417 3.02776 12.7041 3.21094C12.6385 3.56677 12.5349 4.04698 12.3955 4.65137C12.3925 4.76708 12.3637 4.93867 12.3105 5.16016C12.2547 5.3927 12.1939 5.63921 12.1289 5.89941C12.0732 6.15948 12.0325 6.38244 12.0049 6.56641C11.9673 6.81086 11.9251 7.04191 11.8779 7.25879L11.877 7.25977C11.6535 8.24286 11.316 9.2963 10.9639 10.2676C10.7023 11.0055 10.4683 11.6096 10.2617 12.0791C10.0326 12.6042 9.72832 12.9563 9.34082 13.1104C9.14749 13.1939 8.9548 13.2054 8.76758 13.1377C8.58298 13.0708 8.41314 12.9307 8.25684 12.7305L8.25488 12.7285C8.07498 12.4823 7.92279 12.2394 7.79883 12.001C7.67299 11.7589 7.57219 11.4757 7.49609 11.1523C7.42037 10.8305 7.355 10.4257 7.29883 9.93945L7.14453 8.79004V8.78711C7.10704 8.40282 7.07831 8.01368 7.05957 7.62012C7.04079 7.2163 7.03652 6.78886 7.0459 6.33887C7.05053 6.0744 7.04648 5.86663 7.03516 5.71484C7.02949 5.63897 7.02254 5.57859 7.01367 5.5332C7.01179 5.52359 7.0077 5.5155 7.00586 5.50781C6.99119 5.53179 6.97418 5.56253 6.95605 5.60059C6.91039 5.69651 6.86065 5.80995 6.80762 5.94141L6.6377 6.38867C6.57198 6.5764 6.49291 6.79207 6.39941 7.03516L6.39844 7.03418C6.3142 7.26812 6.22637 7.50243 6.13281 7.73633C6.03956 7.96947 5.95971 8.17028 5.89453 8.33789C5.82943 8.5053 5.78744 8.61294 5.76855 8.66016L5.76562 8.66797C5.71137 8.77647 5.64644 8.92297 5.57227 9.1084V9.11035C5.50015 9.28167 5.44097 9.46704 5.39551 9.66699L5.3916 9.68066C5.05644 10.5558 4.80546 11.3084 4.63867 11.9385C4.48031 12.5626 4.36277 12.9826 4.28613 13.1934C4.23851 13.3266 4.19059 13.4375 4.14258 13.5234C4.09582 13.607 4.04327 13.6775 3.98145 13.7188L3.98047 13.7168C3.90742 13.7688 3.81526 13.7666 3.73047 13.7461C3.6407 13.7243 3.53485 13.6774 3.41504 13.6104V13.6094C3.21718 13.5004 3.07213 13.3662 2.99512 13.2012C2.94046 13.084 2.91001 12.9587 2.90234 12.8262V12.6865L2.94238 12.4229C2.95916 12.3342 2.97905 12.2441 3.00293 12.1533C3.07826 11.8522 3.15944 11.5996 3.24609 11.3975L3.24707 11.3955C3.33959 11.192 3.42743 10.9834 3.51074 10.7705L3.51172 10.7686C3.60145 10.5531 3.67862 10.2757 3.74316 9.93457L3.74512 9.92383L3.75 9.91309C3.89853 9.5696 4.02849 9.24511 4.13965 8.93945L4.14062 8.93652C4.26164 8.62933 4.35441 8.37916 4.41895 8.18555C4.45161 8.08756 4.47586 8.01384 4.49219 7.96484C4.50029 7.94055 4.50667 7.92239 4.51074 7.91016C4.51273 7.90418 4.5146 7.89955 4.51562 7.89648C4.51614 7.89495 4.51635 7.89334 4.5166 7.89258V7.8916C4.53032 7.84213 4.56995 7.73876 4.63086 7.59082L4.63281 7.58691C4.70726 7.42871 4.79592 7.23735 4.89844 7.01367L4.89941 7.01172C5.01093 6.77939 5.1185 6.54674 5.2207 6.31445C5.37882 5.86849 5.52734 5.49016 5.66797 5.18066C5.80896 4.86108 5.95103 4.5735 6.09277 4.31836L6.09375 4.31641C6.24399 4.06287 6.40334 3.80905 6.57227 3.55566C6.69745 3.33984 6.8794 3.20579 7.11426 3.16309C7.33725 3.12261 7.55186 3.14758 7.75586 3.23828H7.75684C7.97074 3.32384 8.11461 3.47745 8.17969 3.69434C8.22596 3.79019 8.26324 3.89725 8.29102 4.01562C8.33087 4.14514 8.3645 4.3331 8.39258 4.5752L8.41895 4.77539C8.44215 4.99479 8.45683 5.2732 8.46387 5.60938L8.48438 6.37793C8.48904 6.62269 8.49217 6.85706 8.49219 7.08105L8.5127 7.71191C8.52199 7.91408 8.53392 8.10826 8.54785 8.29395H8.54688C8.57453 8.56958 8.61582 8.8263 8.66895 9.06445L8.72656 9.29688L8.72852 9.30664L8.77051 9.58984C8.78462 9.69332 8.79942 9.80595 8.81348 9.92773C8.84145 10.1608 8.86949 10.3939 8.89746 10.627C8.93428 10.8567 8.97052 11.0486 9.00684 11.2031L9.04785 11.3291C9.06058 11.3176 9.07795 11.303 9.0957 11.2793L9.09668 11.2773C9.15197 11.2061 9.23198 11.0463 9.33496 10.7842C9.43591 10.5271 9.56524 10.1293 9.72363 9.58887C9.88169 9.04961 10.073 8.32315 10.2969 7.40918L10.2979 7.40527C10.3433 7.25066 10.4029 6.99691 10.4775 6.64258L10.4785 6.63965C10.5614 6.28945 10.6213 5.93465 10.6582 5.5752L10.6592 5.56641L10.6611 5.55859C10.726 5.3269 10.7914 5.07082 10.8564 4.79199C10.9217 4.51253 10.9779 4.26569 11.0244 4.05176L11.0254 4.04785C11.0498 3.9542 11.0781 3.85533 11.1074 3.75586C11.1369 3.65573 11.1675 3.55422 11.1943 3.45312C11.2483 3.2499 11.2881 3.05434 11.2881 2.88281C11.2881 2.71809 11.3066 2.57767 11.3506 2.46777L11.3525 2.46387C11.3983 2.36327 11.4481 2.28038 11.5029 2.22168C11.6147 2.02442 11.769 1.90471 11.9697 1.90234V1.90137C11.9708 1.9013 11.9725 1.9024 11.9736 1.90234L11.9756 1.90137V1.90234Z" fill="#3B4CBA" stroke="#3B4CBA" stroke-width="0.2"/>
</svg>
